<svg xmlns="http://www.w3.org/2000/svg" baseProfile="full" height="889.44" width="571.478"><defs><marker id="a" markerHeight="6.4" markerUnits="strokeWidth" markerWidth="8" orient="auto" refX="7.6" refY="4.1"><path d="m.8 1.6 6.8 2.5L.8 6.4"/></marker></defs><path d="M137.888 820.496c30.683 174.013 85.019-499.789 115.702-325.776" fill="none" stroke="#000" stroke-width="3"/><path d="M253.59 682.608c23.093 130.969 156.906-318.857 180-187.888" fill="none" stroke="#000" stroke-width="3"/><path fill="none" marker-mid="url(#a)" stroke="#000" stroke-width="3" d="M253.59 494.72v111.944 75.944"/><path fill="none" marker-mid="url(#a)" stroke="#000" stroke-width="3" d="M253.59 306.832V194.888v-75.944"/><path d="M137.888 256.832c11.187-63.443 104.515 113.443 115.702 50" fill="none" stroke="#000" stroke-width="3"/><path d="M253.59 118.944c23.093-130.969 156.906 318.857 180 187.888" fill="none" stroke="#000" stroke-width="3"/><path fill="#FFCC38" fill-opacity=".85" stroke="#FFCC38" stroke-width="3" d="m137.888 820.496 64.279-76.604h70l-64.279 76.604z"/><path fill="#FFCC38" fill-opacity=".85" stroke="#FFCC38" stroke-width="3" d="m208.595 736.231 44.995-53.623h100l-44.995 53.623z"/><path fill="#FFCC38" fill-opacity=".85" stroke="#FFCC38" stroke-width="3" d="m299.311 759.212 64.279-76.604h70l-64.279 76.604z"/><path fill="#FFCC38" fill-opacity=".85" stroke="#FFCC38" stroke-width="3" d="m217.888 820.496 44.995-53.623h100l-44.995 53.623z"/><path fill="#FFCC38" fill-opacity=".85" stroke="#FFCC38" stroke-width="3" d="m137.888 632.608 64.279-76.604h70l-64.279 76.604z"/><path fill="#FFCC38" fill-opacity=".85" stroke="#FFCC38" stroke-width="3" d="m208.595 548.343 44.995-53.623h100l-44.995 53.623z"/><path fill="#FFCC38" fill-opacity=".85" stroke="#FFCC38" stroke-width="3" d="m299.311 571.324 64.279-76.604h70l-64.279 76.604z"/><path fill="#FFCC38" fill-opacity=".85" stroke="#FFCC38" stroke-width="3" d="m217.888 632.608 44.995-53.623h100l-44.995 53.623z"/><path fill="#FFCC38" fill-opacity=".85" stroke="#FFCC38" stroke-width="3" d="m137.888 444.72 64.279-76.604h70l-64.279 76.604z"/><path fill="#FFCC38" fill-opacity=".85" stroke="#FFCC38" stroke-width="3" d="m208.595 360.455 44.995-53.623h100l-44.995 53.623z"/><path fill="#FFCC38" fill-opacity=".85" stroke="#FFCC38" stroke-width="3" d="m299.311 383.436 64.279-76.604h70l-64.279 76.604z"/><path fill="#FFCC38" fill-opacity=".85" stroke="#FFCC38" stroke-width="3" d="m217.888 444.72 44.995-53.623h100l-44.995 53.623z"/><path fill="#FFCC38" fill-opacity=".85" stroke="#FFCC38" stroke-width="3" d="m137.888 256.832 64.279-76.604h70l-64.279 76.604z"/><path fill="#FFCC38" fill-opacity=".85" stroke="#FFCC38" stroke-width="3" d="m208.595 172.567 44.995-53.623h100l-44.995 53.623z"/><path fill="#FFCC38" fill-opacity=".85" stroke="#FFCC38" stroke-width="3" d="m299.311 195.548 64.279-76.604h70l-64.279 76.604z"/><path fill="#FFCC38" fill-opacity=".85" stroke="#FFCC38" stroke-width="3" d="m217.888 256.832 44.995-53.623h100l-44.995 53.623z"/><path fill="none" stroke="#E23D28" stroke-opacity=".95" stroke-width="3" d="M137.888 820.496 253.59 682.608"/><path fill="none" stroke="#E23D28" stroke-opacity=".95" stroke-width="3" d="M253.59 682.608h180"/><path fill="none" stroke="#E23D28" stroke-opacity=".95" stroke-width="3" d="M433.59 682.608 317.888 820.496"/><path fill="none" stroke="#E23D28" stroke-opacity=".95" stroke-width="3" d="M317.888 820.496h-180"/><path fill="none" stroke="#E23D28" stroke-opacity=".95" stroke-width="3" d="M137.888 632.608 253.59 494.72"/><path fill="none" stroke="#E23D28" stroke-opacity=".95" stroke-width="3" d="M253.59 494.72h180"/><path fill="none" stroke="#E23D28" stroke-opacity=".95" stroke-width="3" d="M433.59 494.72 317.888 632.608"/><path fill="none" stroke="#E23D28" stroke-opacity=".95" stroke-width="3" d="M317.888 632.608h-180"/><path fill="none" stroke="#E23D28" stroke-opacity=".95" stroke-width="3" d="M137.888 444.72 253.59 306.832"/><path fill="none" stroke="#E23D28" stroke-opacity=".95" stroke-width="3" d="M253.59 306.832h180"/><path fill="none" stroke="#E23D28" stroke-opacity=".95" stroke-width="3" d="M433.59 306.832 317.888 444.72"/><path fill="none" stroke="#E23D28" stroke-opacity=".95" stroke-width="3" d="M317.888 444.72h-180"/><path fill="none" stroke="#E23D28" stroke-opacity=".95" stroke-width="3" d="M137.888 256.832 253.59 118.944"/><path fill="none" stroke="#E23D28" stroke-opacity=".95" stroke-width="3" d="M253.59 118.944h180"/><path fill="none" stroke="#E23D28" stroke-opacity=".95" stroke-width="3" d="M433.59 118.944 317.888 256.832"/><path fill="none" stroke="#E23D28" stroke-opacity=".95" stroke-width="3" d="M317.888 256.832h-180"/><path d="M433.59 682.608c-11.187 63.443-104.515-113.443-115.702-50" fill="none" stroke="#000" stroke-width="3"/><path fill="none" marker-mid="url(#a)" stroke="#000" stroke-width="3" d="M137.888 632.608v111.944 75.944"/><path fill="none" marker-mid="url(#a)" stroke="#000" stroke-width="3" d="M433.59 494.72v111.944 75.944"/><path fill="none" marker-mid="url(#a)" stroke="#000" stroke-width="3" d="M317.888 632.608v111.944 75.944"/><path fill="none" marker-mid="url(#a)" stroke="#000" stroke-width="3" d="M137.888 444.72V332.776v-75.944"/><path fill="none" marker-mid="url(#a)" stroke="#000" stroke-width="3" d="M433.59 306.832V194.888v-75.944"/><path fill="none" marker-mid="url(#a)" stroke="#000" stroke-width="3" d="M317.888 444.72V332.776v-75.944"/><path d="M433.59 118.944C402.907-55.069 348.57 618.733 317.888 444.72" fill="none" stroke="#000" stroke-width="3"/><circle cx="137.888" cy="820.496" fill="#fff" opacity=".95" r="6" stroke="#000" stroke-width="2"/><text font-family="Arial, Helvetica" font-size="20" font-weight="bold" stroke="#FFCC38" stroke-linejoin="round" stroke-width="2" style="text-anchor:middle" transform="rotate(-50 943.884 165.55) skewX(40)">B.DG14</text><text font-family="Arial, Helvetica" font-size="20" font-weight="bold" style="text-anchor:middle" transform="rotate(-50 943.884 165.55) skewX(40)">B.DG14</text><circle cx="253.59" cy="682.608" fill="#fff" opacity=".95" r="6" stroke="#000" stroke-width="2"/><text font-family="Arial, Helvetica" font-size="20" font-weight="bold" stroke="#FFCC38" stroke-linejoin="round" stroke-width="2" style="text-anchor:middle" transform="matrix(1 0 -.8391 1 276.413 714.74)">B.DG17</text><text font-family="Arial, Helvetica" font-size="20" font-weight="bold" style="text-anchor:middle" transform="matrix(1 0 -.8391 1 276.413 714.74)">B.DG17</text><circle cx="433.59" cy="682.608" fill="#fff" opacity=".95" r="6" stroke="#000" stroke-width="2"/><text font-family="Arial, Helvetica" font-size="20" font-weight="bold" stroke="#FFCC38" stroke-linejoin="round" stroke-width="2" style="text-anchor:middle" transform="rotate(-50 958.884 -38.178) skewX(40)">B.DG20</text><text font-family="Arial, Helvetica" font-size="20" font-weight="bold" style="text-anchor:middle" transform="rotate(-50 958.884 -38.178) skewX(40)">B.DG20</text><circle cx="317.888" cy="820.496" fill="#fff" opacity=".95" r="6" stroke="#000" stroke-width="2"/><text font-family="Arial, Helvetica" font-size="20" font-weight="bold" stroke="#FFCC38" stroke-linejoin="round" stroke-width="2" style="text-anchor:middle" transform="matrix(1 0 -.8391 1 285.706 799.005)">B.DG23</text><text font-family="Arial, Helvetica" font-size="20" font-weight="bold" style="text-anchor:middle" transform="matrix(1 0 -.8391 1 285.706 799.005)">B.DG23</text><circle cx="137.888" cy="632.608" fill="#fff" opacity=".95" r="6" stroke="#000" stroke-width="2"/><text font-family="Arial, Helvetica" font-size="20" font-weight="bold" stroke="#FFCC38" stroke-linejoin="round" stroke-width="2" style="text-anchor:middle" transform="rotate(-50 742.42 71.606) skewX(40)">B.DG13</text><text font-family="Arial, Helvetica" font-size="20" font-weight="bold" style="text-anchor:middle" transform="rotate(-50 742.42 71.606) skewX(40)">B.DG13</text><circle cx="253.59" cy="494.72" fill="#fff" opacity=".95" r="6" stroke="#000" stroke-width="2"/><text font-family="Arial, Helvetica" font-size="20" font-weight="bold" stroke="#FFCC38" stroke-linejoin="round" stroke-width="2" style="text-anchor:middle" transform="matrix(1 0 -.8391 1 276.413 526.852)">B.DG16</text><text font-family="Arial, Helvetica" font-size="20" font-weight="bold" style="text-anchor:middle" transform="matrix(1 0 -.8391 1 276.413 526.852)">B.DG16</text><circle cx="433.59" cy="494.72" fill="#fff" opacity=".95" r="6" stroke="#000" stroke-width="2"/><text font-family="Arial, Helvetica" font-size="20" font-weight="bold" stroke="#FFCC38" stroke-linejoin="round" stroke-width="2" style="text-anchor:middle" transform="rotate(-50 757.42 -132.122) skewX(40)">B.DG19</text><text font-family="Arial, Helvetica" font-size="20" font-weight="bold" style="text-anchor:middle" transform="rotate(-50 757.42 -132.122) skewX(40)">B.DG19</text><circle cx="317.888" cy="632.608" fill="#fff" opacity=".95" r="6" stroke="#000" stroke-width="2"/><text font-family="Arial, Helvetica" font-size="20" font-weight="bold" stroke="#FFCC38" stroke-linejoin="round" stroke-width="2" style="text-anchor:middle" transform="matrix(1 0 -.8391 1 285.706 611.117)">B.DG22</text><text font-family="Arial, Helvetica" font-size="20" font-weight="bold" style="text-anchor:middle" transform="matrix(1 0 -.8391 1 285.706 611.117)">B.DG22</text><circle cx="137.888" cy="444.72" fill="#fff" opacity=".95" r="6" stroke="#000" stroke-width="2"/><text font-family="Arial, Helvetica" font-size="20" font-weight="bold" stroke="#FFCC38" stroke-linejoin="round" stroke-width="2" style="text-anchor:middle" transform="rotate(-50 540.957 -22.338) skewX(40)">A.DG1</text><text font-family="Arial, Helvetica" font-size="20" font-weight="bold" style="text-anchor:middle" transform="rotate(-50 540.957 -22.338) skewX(40)">A.DG1</text><circle cx="253.59" cy="306.832" fill="#fff" opacity=".95" r="6" stroke="#000" stroke-width="2"/><text font-family="Arial, Helvetica" font-size="20" font-weight="bold" stroke="#FFCC38" stroke-linejoin="round" stroke-width="2" style="text-anchor:middle" transform="matrix(1 0 -.8391 1 276.413 338.964)">A.DG4</text><text font-family="Arial, Helvetica" font-size="20" font-weight="bold" style="text-anchor:middle" transform="matrix(1 0 -.8391 1 276.413 338.964)">A.DG4</text><circle cx="433.59" cy="306.832" fill="#fff" opacity=".95" r="6" stroke="#000" stroke-width="2"/><text font-family="Arial, Helvetica" font-size="20" font-weight="bold" stroke="#FFCC38" stroke-linejoin="round" stroke-width="2" style="text-anchor:middle" transform="rotate(-50 555.957 -226.066) skewX(40)">A.DG7</text><text font-family="Arial, Helvetica" font-size="20" font-weight="bold" style="text-anchor:middle" transform="rotate(-50 555.957 -226.066) skewX(40)">A.DG7</text><circle cx="317.888" cy="444.72" fill="#fff" opacity=".95" r="6" stroke="#000" stroke-width="2"/><text font-family="Arial, Helvetica" font-size="20" font-weight="bold" stroke="#FFCC38" stroke-linejoin="round" stroke-width="2" style="text-anchor:middle" transform="matrix(1 0 -.8391 1 285.706 423.23)">A.DG10</text><text font-family="Arial, Helvetica" font-size="20" font-weight="bold" style="text-anchor:middle" transform="matrix(1 0 -.8391 1 285.706 423.23)">A.DG10</text><circle cx="137.888" cy="256.832" fill="#fff" opacity=".95" r="6" stroke="#000" stroke-width="2"/><text font-family="Arial, Helvetica" font-size="20" font-weight="bold" stroke="#FFCC38" stroke-linejoin="round" stroke-width="2" style="text-anchor:middle" transform="rotate(-50 339.493 -116.282) skewX(40)">A.DG2</text><text font-family="Arial, Helvetica" font-size="20" font-weight="bold" style="text-anchor:middle" transform="rotate(-50 339.493 -116.282) skewX(40)">A.DG2</text><circle cx="253.59" cy="118.944" fill="#fff" opacity=".95" r="6" stroke="#000" stroke-width="2"/><text font-family="Arial, Helvetica" font-size="20" font-weight="bold" stroke="#FFCC38" stroke-linejoin="round" stroke-width="2" style="text-anchor:middle" transform="matrix(1 0 -.8391 1 276.413 151.076)">A.DG5</text><text font-family="Arial, Helvetica" font-size="20" font-weight="bold" style="text-anchor:middle" transform="matrix(1 0 -.8391 1 276.413 151.076)">A.DG5</text><circle cx="433.59" cy="118.944" fill="#fff" opacity=".95" r="6" stroke="#000" stroke-width="2"/><text font-family="Arial, Helvetica" font-size="20" font-weight="bold" stroke="#FFCC38" stroke-linejoin="round" stroke-width="2" style="text-anchor:middle" transform="rotate(-50 354.493 -320.01) skewX(40)">A.DG8</text><text font-family="Arial, Helvetica" font-size="20" font-weight="bold" style="text-anchor:middle" transform="rotate(-50 354.493 -320.01) skewX(40)">A.DG8</text><circle cx="317.888" cy="256.832" fill="#fff" opacity=".95" r="6" stroke="#000" stroke-width="2"/><text font-family="Arial, Helvetica" font-size="20" font-weight="bold" stroke="#FFCC38" stroke-linejoin="round" stroke-width="2" style="text-anchor:middle" transform="matrix(1 0 -.8391 1 285.706 235.341)">A.DG11</text><text font-family="Arial, Helvetica" font-size="20" font-weight="bold" style="text-anchor:middle" transform="matrix(1 0 -.8391 1 285.706 235.341)">A.DG11</text><text font-family="Arial, Helvetica" font-size="24" font-weight="bold" stroke="#fff" stroke-linejoin="round" stroke-width="2" style="text-anchor:end" transform="translate(117.888 637.408)">5&apos;</text><text font-family="Arial, Helvetica" font-size="24" font-weight="bold" style="text-anchor:end" transform="translate(117.888 637.408)">5&apos;</text><text font-family="Arial, Helvetica" font-size="24" font-weight="bold" stroke="#fff" stroke-linejoin="round" stroke-width="2" style="text-anchor:begin" transform="translate(337.888 825.296)">3&apos;</text><text font-family="Arial, Helvetica" font-size="24" font-weight="bold" style="text-anchor:begin" transform="translate(337.888 825.296)">3&apos;</text><text font-family="Arial, Helvetica" font-size="24" font-weight="bold" stroke="#fff" stroke-linejoin="round" stroke-width="2" style="text-anchor:end" transform="translate(117.888 449.52)">5&apos;</text><text font-family="Arial, Helvetica" font-size="24" font-weight="bold" style="text-anchor:end" transform="translate(117.888 449.52)">5&apos;</text><text font-family="Arial, Helvetica" font-size="24" font-weight="bold" stroke="#fff" stroke-linejoin="round" stroke-width="2" style="text-anchor:begin" transform="translate(337.888 261.632)">3&apos;</text><text font-family="Arial, Helvetica" font-size="24" font-weight="bold" style="text-anchor:begin" transform="translate(337.888 261.632)">3&apos;</text></svg>